<svg width="639" height="551" viewBox="0 0 639 551" fill="none" xmlns="http://www.w3.org/2000/svg">
<path d="M67.0103 480L55.6823 446.4H59.3303L69.9383 478.032H68.1143L79.0583 446.4H82.3223L93.1223 478.032H91.3943L102.098 446.4H105.506L94.1783 480H90.4343L80.1143 450H81.0743L70.7063 480H67.0103ZM124.866 454.56C126.914 454.56 128.706 454.96 130.242 455.76C131.81 456.528 133.026 457.712 133.89 459.312C134.786 460.912 135.234 462.928 135.234 465.36V480H131.826V465.696C131.826 463.04 131.154 461.04 129.81 459.696C128.498 458.32 126.642 457.632 124.242 457.632C122.45 457.632 120.882 458 119.538 458.736C118.226 459.44 117.202 460.48 116.466 461.856C115.762 463.2 115.41 464.832 115.41 466.752V480H112.002V444.384H115.41V461.712L114.738 460.416C115.538 458.592 116.818 457.168 118.578 456.144C120.338 455.088 122.434 454.56 124.866 454.56ZM155.144 480.24C152.52 480.24 150.216 479.696 148.232 478.608C146.248 477.488 144.696 475.968 143.576 474.048C142.456 472.096 141.896 469.872 141.896 467.376C141.896 464.88 142.424 462.672 143.48 460.752C144.568 458.832 146.04 457.328 147.896 456.24C149.784 455.12 151.896 454.56 154.232 454.56C156.6 454.56 158.696 455.104 160.52 456.192C162.376 457.248 163.832 458.752 164.888 460.704C165.944 462.624 166.472 464.848 166.472 467.376C166.472 467.536 166.456 467.712 166.424 467.904C166.424 468.064 166.424 468.24 166.424 468.432H144.488V465.888H164.6L163.256 466.896C163.256 465.072 162.856 463.456 162.056 462.048C161.288 460.608 160.232 459.488 158.888 458.688C157.544 457.888 155.992 457.488 154.232 457.488C152.504 457.488 150.952 457.888 149.576 458.688C148.2 459.488 147.128 460.608 146.36 462.048C145.592 463.488 145.208 465.136 145.208 466.992V467.52C145.208 469.44 145.624 471.136 146.456 472.608C147.32 474.048 148.504 475.184 150.008 476.016C151.544 476.816 153.288 477.216 155.24 477.216C156.776 477.216 158.2 476.944 159.512 476.4C160.856 475.856 162.008 475.024 162.968 473.904L164.888 476.112C163.768 477.456 162.36 478.48 160.664 479.184C159 479.888 157.16 480.24 155.144 480.24ZM173.408 480V454.8H176.672V461.664L176.336 460.464C177.04 458.544 178.224 457.088 179.888 456.096C181.552 455.072 183.616 454.56 186.08 454.56V457.872C185.952 457.872 185.824 457.872 185.696 457.872C185.568 457.84 185.44 457.824 185.312 457.824C182.656 457.824 180.576 458.64 179.072 460.272C177.568 461.872 176.816 464.16 176.816 467.136V480H173.408ZM202.769 480.24C200.145 480.24 197.841 479.696 195.857 478.608C193.873 477.488 192.321 475.968 191.201 474.048C190.081 472.096 189.521 469.872 189.521 467.376C189.521 464.88 190.049 462.672 191.105 460.752C192.193 458.832 193.665 457.328 195.521 456.24C197.409 455.12 199.521 454.56 201.857 454.56C204.225 454.56 206.321 455.104 208.145 456.192C210.001 457.248 211.457 458.752 212.513 460.704C213.569 462.624 214.097 464.848 214.097 467.376C214.097 467.536 214.081 467.712 214.049 467.904C214.049 468.064 214.049 468.24 214.049 468.432H192.113V465.888H212.225L210.881 466.896C210.881 465.072 210.481 463.456 209.681 462.048C208.913 460.608 207.857 459.488 206.513 458.688C205.169 457.888 203.617 457.488 201.857 457.488C200.129 457.488 198.577 457.888 197.201 458.688C195.825 459.488 194.753 460.608 193.985 462.048C193.217 463.488 192.833 465.136 192.833 466.992V467.52C192.833 469.44 193.249 471.136 194.081 472.608C194.945 474.048 196.129 475.184 197.633 476.016C199.169 476.816 200.913 477.216 202.865 477.216C204.401 477.216 205.825 476.944 207.137 476.4C208.481 475.856 209.633 475.024 210.593 473.904L212.513 476.112C211.393 477.456 209.985 478.48 208.289 479.184C206.625 479.888 204.785 480.24 202.769 480.24ZM237.484 461.424H255.244V464.448H237.484V461.424ZM237.868 476.928H258.076V480H234.316V446.4H257.356V449.472H237.868V476.928ZM271.67 480L260.486 454.8H264.038L274.31 478.176H272.63L283.046 454.8H286.406L275.174 480H271.67ZM301.206 480.24C298.582 480.24 296.278 479.696 294.294 478.608C292.31 477.488 290.758 475.968 289.638 474.048C288.518 472.096 287.958 469.872 287.958 467.376C287.958 464.88 288.486 462.672 289.542 460.752C290.63 458.832 292.102 457.328 293.958 456.24C295.846 455.12 297.958 454.56 300.294 454.56C302.662 454.56 304.758 455.104 306.582 456.192C308.438 457.248 309.894 458.752 310.95 460.704C312.006 462.624 312.534 464.848 312.534 467.376C312.534 467.536 312.518 467.712 312.486 467.904C312.486 468.064 312.486 468.24 312.486 468.432H290.55V465.888H310.662L309.318 466.896C309.318 465.072 308.918 463.456 308.118 462.048C307.35 460.608 306.294 459.488 304.95 458.688C303.606 457.888 302.054 457.488 300.294 457.488C298.566 457.488 297.014 457.888 295.638 458.688C294.262 459.488 293.19 460.608 292.422 462.048C291.654 463.488 291.27 465.136 291.27 466.992V467.52C291.27 469.44 291.686 471.136 292.518 472.608C293.382 474.048 294.566 475.184 296.07 476.016C297.606 476.816 299.35 477.216 301.302 477.216C302.838 477.216 304.262 476.944 305.574 476.4C306.918 475.856 308.07 475.024 309.03 473.904L310.95 476.112C309.83 477.456 308.422 478.48 306.726 479.184C305.062 479.888 303.222 480.24 301.206 480.24ZM319.471 480V454.8H322.735V461.664L322.399 460.464C323.103 458.544 324.287 457.088 325.951 456.096C327.615 455.072 329.679 454.56 332.143 454.56V457.872C332.015 457.872 331.887 457.872 331.759 457.872C331.631 457.84 331.503 457.824 331.375 457.824C328.719 457.824 326.639 458.64 325.135 460.272C323.631 461.872 322.879 464.16 322.879 467.136V480H319.471ZM339.632 489.552C338.448 489.552 337.312 489.36 336.224 488.976C335.168 488.592 334.255 488.016 333.487 487.248L335.072 484.704C335.712 485.312 336.4 485.776 337.136 486.096C337.904 486.448 338.752 486.624 339.68 486.624C340.8 486.624 341.76 486.304 342.56 485.664C343.392 485.056 344.176 483.968 344.912 482.4L346.544 478.704L346.928 478.176L357.296 454.8H360.656L348.032 483.024C347.328 484.656 346.544 485.952 345.68 486.912C344.848 487.872 343.936 488.544 342.944 488.928C341.952 489.344 340.848 489.552 339.632 489.552ZM346.352 480.72L334.736 454.8H338.288L348.56 477.936L346.352 480.72ZM378.738 480V446.4H381.666L397.026 472.608H395.49L410.706 446.4H413.634V480H410.226V451.728H411.042L397.026 475.728H395.346L381.234 451.728H382.146V480H378.738ZM434.565 480.24C431.941 480.24 429.637 479.696 427.653 478.608C425.669 477.488 424.117 475.968 422.997 474.048C421.877 472.096 421.317 469.872 421.317 467.376C421.317 464.88 421.845 462.672 422.901 460.752C423.989 458.832 425.461 457.328 427.317 456.24C429.205 455.12 431.317 454.56 433.653 454.56C436.021 454.56 438.117 455.104 439.941 456.192C441.797 457.248 443.253 458.752 444.309 460.704C445.365 462.624 445.893 464.848 445.893 467.376C445.893 467.536 445.877 467.712 445.845 467.904C445.845 468.064 445.845 468.24 445.845 468.432H423.909V465.888H444.021L442.677 466.896C442.677 465.072 442.277 463.456 441.477 462.048C440.709 460.608 439.653 459.488 438.309 458.688C436.965 457.888 435.413 457.488 433.653 457.488C431.925 457.488 430.373 457.888 428.997 458.688C427.621 459.488 426.549 460.608 425.781 462.048C425.013 463.488 424.629 465.136 424.629 466.992V467.52C424.629 469.44 425.045 471.136 425.877 472.608C426.741 474.048 427.925 475.184 429.429 476.016C430.965 476.816 432.709 477.216 434.661 477.216C436.197 477.216 437.621 476.944 438.933 476.4C440.277 475.856 441.429 475.024 442.389 473.904L444.309 476.112C443.189 477.456 441.781 478.48 440.085 479.184C438.421 479.888 436.581 480.24 434.565 480.24ZM459.598 480.24C457.518 480.24 455.55 479.952 453.694 479.376C451.838 478.768 450.382 478.016 449.326 477.12L450.862 474.432C451.886 475.2 453.198 475.872 454.798 476.448C456.398 476.992 458.078 477.264 459.838 477.264C462.238 477.264 463.966 476.896 465.022 476.16C466.078 475.392 466.606 474.384 466.606 473.136C466.606 472.208 466.302 471.488 465.694 470.976C465.118 470.432 464.35 470.032 463.39 469.776C462.43 469.488 461.358 469.248 460.174 469.056C458.99 468.864 457.806 468.64 456.622 468.384C455.47 468.128 454.414 467.76 453.454 467.28C452.494 466.768 451.71 466.08 451.102 465.216C450.526 464.352 450.238 463.2 450.238 461.76C450.238 460.384 450.622 459.152 451.39 458.064C452.158 456.976 453.278 456.128 454.75 455.52C456.254 454.88 458.078 454.56 460.222 454.56C461.854 454.56 463.486 454.784 465.118 455.232C466.75 455.648 468.094 456.208 469.15 456.912L467.662 459.648C466.542 458.88 465.342 458.336 464.062 458.016C462.782 457.664 461.502 457.488 460.222 457.488C457.95 457.488 456.27 457.888 455.182 458.688C454.126 459.456 453.598 460.448 453.598 461.664C453.598 462.624 453.886 463.376 454.462 463.92C455.07 464.464 455.854 464.896 456.814 465.216C457.806 465.504 458.878 465.744 460.03 465.936C461.214 466.128 462.382 466.368 463.534 466.656C464.718 466.912 465.79 467.28 466.75 467.76C467.742 468.208 468.526 468.864 469.102 469.728C469.71 470.56 470.014 471.664 470.014 473.04C470.014 474.512 469.598 475.792 468.766 476.88C467.966 477.936 466.782 478.768 465.214 479.376C463.678 479.952 461.806 480.24 459.598 480.24ZM483.036 480.24C480.956 480.24 478.988 479.952 477.132 479.376C475.276 478.768 473.82 478.016 472.764 477.12L474.3 474.432C475.324 475.2 476.636 475.872 478.236 476.448C479.836 476.992 481.516 477.264 483.276 477.264C485.676 477.264 487.404 476.896 488.46 476.16C489.516 475.392 490.044 474.384 490.044 473.136C490.044 472.208 489.74 471.488 489.132 470.976C488.556 470.432 487.788 470.032 486.828 469.776C485.868 469.488 484.796 469.248 483.612 469.056C482.428 468.864 481.244 468.64 480.06 468.384C478.908 468.128 477.852 467.76 476.892 467.28C475.932 466.768 475.148 466.08 474.54 465.216C473.964 464.352 473.676 463.2 473.676 461.76C473.676 460.384 474.06 459.152 474.828 458.064C475.596 456.976 476.716 456.128 478.188 455.52C479.692 454.88 481.516 454.56 483.66 454.56C485.292 454.56 486.924 454.784 488.556 455.232C490.188 455.648 491.532 456.208 492.588 456.912L491.1 459.648C489.98 458.88 488.78 458.336 487.5 458.016C486.22 457.664 484.94 457.488 483.66 457.488C481.388 457.488 479.708 457.888 478.62 458.688C477.564 459.456 477.036 460.448 477.036 461.664C477.036 462.624 477.324 463.376 477.9 463.92C478.508 464.464 479.292 464.896 480.252 465.216C481.244 465.504 482.316 465.744 483.468 465.936C484.652 466.128 485.82 466.368 486.972 466.656C488.156 466.912 489.228 467.28 490.188 467.76C491.18 468.208 491.964 468.864 492.54 469.728C493.148 470.56 493.452 471.664 493.452 473.04C493.452 474.512 493.036 475.792 492.204 476.88C491.404 477.936 490.22 478.768 488.652 479.376C487.116 479.952 485.244 480.24 483.036 480.24ZM515.497 480V474.432L515.353 473.52V464.208C515.353 462.064 514.745 460.416 513.529 459.264C512.345 458.112 510.569 457.536 508.201 457.536C506.569 457.536 505.017 457.808 503.545 458.352C502.073 458.896 500.825 459.616 499.801 460.512L498.265 457.968C499.545 456.88 501.081 456.048 502.873 455.472C504.665 454.864 506.553 454.56 508.537 454.56C511.801 454.56 514.313 455.376 516.073 457.008C517.865 458.608 518.761 461.056 518.761 464.352V480H515.497ZM506.809 480.24C504.921 480.24 503.273 479.936 501.865 479.328C500.489 478.688 499.433 477.824 498.697 476.736C497.961 475.616 497.593 474.336 497.593 472.896C497.593 471.584 497.897 470.4 498.505 469.344C499.145 468.256 500.169 467.392 501.577 466.752C503.017 466.08 504.937 465.744 507.337 465.744H516.025V468.288H507.433C505.001 468.288 503.305 468.72 502.345 469.584C501.417 470.448 500.953 471.52 500.953 472.8C500.953 474.24 501.513 475.392 502.633 476.256C503.753 477.12 505.321 477.552 507.337 477.552C509.257 477.552 510.905 477.12 512.281 476.256C513.689 475.36 514.713 474.08 515.353 472.416L516.121 474.768C515.481 476.432 514.361 477.76 512.761 478.752C511.193 479.744 509.209 480.24 506.809 480.24ZM538.77 489.552C536.466 489.552 534.258 489.216 532.146 488.544C530.034 487.872 528.322 486.912 527.01 485.664L528.738 483.072C529.922 484.128 531.378 484.96 533.106 485.568C534.866 486.208 536.722 486.528 538.674 486.528C541.874 486.528 544.226 485.776 545.73 484.272C547.234 482.8 547.986 480.496 547.986 477.36V471.072L548.466 466.752L548.13 462.432V454.8H551.394V476.928C551.394 481.28 550.322 484.464 548.178 486.48C546.066 488.528 542.93 489.552 538.77 489.552ZM538.146 479.04C535.746 479.04 533.586 478.528 531.666 477.504C529.746 476.448 528.226 474.992 527.106 473.136C526.018 471.28 525.474 469.152 525.474 466.752C525.474 464.352 526.018 462.24 527.106 460.416C528.226 458.56 529.746 457.12 531.666 456.096C533.586 455.072 535.746 454.56 538.146 454.56C540.386 454.56 542.402 455.024 544.194 455.952C545.986 456.88 547.41 458.256 548.466 460.08C549.522 461.904 550.05 464.128 550.05 466.752C550.05 469.376 549.522 471.6 548.466 473.424C547.41 475.248 545.986 476.64 544.194 477.6C542.402 478.56 540.386 479.04 538.146 479.04ZM538.482 476.016C540.338 476.016 541.986 475.632 543.426 474.864C544.866 474.064 546.002 472.976 546.834 471.6C547.666 470.192 548.082 468.576 548.082 466.752C548.082 464.928 547.666 463.328 546.834 461.952C546.002 460.576 544.866 459.504 543.426 458.736C541.986 457.936 540.338 457.536 538.482 457.536C536.658 457.536 535.01 457.936 533.538 458.736C532.098 459.504 530.962 460.576 530.13 461.952C529.33 463.328 528.93 464.928 528.93 466.752C528.93 468.576 529.33 470.192 530.13 471.6C530.962 472.976 532.098 474.064 533.538 474.864C535.01 475.632 536.658 476.016 538.482 476.016ZM571.581 480.24C568.957 480.24 566.653 479.696 564.669 478.608C562.685 477.488 561.133 475.968 560.013 474.048C558.893 472.096 558.333 469.872 558.333 467.376C558.333 464.88 558.861 462.672 559.917 460.752C561.005 458.832 562.477 457.328 564.333 456.24C566.221 455.12 568.333 454.56 570.669 454.56C573.037 454.56 575.133 455.104 576.957 456.192C578.813 457.248 580.269 458.752 581.325 460.704C582.381 462.624 582.909 464.848 582.909 467.376C582.909 467.536 582.893 467.712 582.861 467.904C582.861 468.064 582.861 468.24 582.861 468.432H560.925V465.888H581.037L579.693 466.896C579.693 465.072 579.293 463.456 578.493 462.048C577.725 460.608 576.669 459.488 575.325 458.688C573.981 457.888 572.429 457.488 570.669 457.488C568.941 457.488 567.389 457.888 566.013 458.688C564.637 459.488 563.565 460.608 562.797 462.048C562.029 463.488 561.645 465.136 561.645 466.992V467.52C561.645 469.44 562.061 471.136 562.893 472.608C563.757 474.048 564.941 475.184 566.445 476.016C567.981 476.816 569.725 477.216 571.677 477.216C573.213 477.216 574.637 476.944 575.949 476.4C577.293 475.856 578.445 475.024 579.405 473.904L581.325 476.112C580.205 477.456 578.797 478.48 577.101 479.184C575.437 479.888 573.597 480.24 571.581 480.24ZM26.4759 521.672H44.2359V524.744H26.4759V521.672ZM26.8599 539H23.3079V505.4H46.3479V508.472H26.8599V539ZM62.8232 539.24C60.1992 539.24 57.8952 538.696 55.9112 537.608C53.9272 536.488 52.3752 534.968 51.2552 533.048C50.1352 531.096 49.5752 528.872 49.5752 526.376C49.5752 523.88 50.1032 521.672 51.1592 519.752C52.2472 517.832 53.7192 516.328 55.5752 515.24C57.4632 514.12 59.5752 513.56 61.9112 513.56C64.2792 513.56 66.3752 514.104 68.1992 515.192C70.0552 516.248 71.5112 517.752 72.5672 519.704C73.6232 521.624 74.1512 523.848 74.1512 526.376C74.1512 526.536 74.1352 526.712 74.1032 526.904C74.1032 527.064 74.1032 527.24 74.1032 527.432H52.1672V524.888H72.2792L70.9352 525.896C70.9352 524.072 70.5352 522.456 69.7352 521.048C68.9672 519.608 67.9112 518.488 66.5672 517.688C65.2232 516.888 63.6712 516.488 61.9112 516.488C60.1832 516.488 58.6312 516.888 57.2552 517.688C55.8792 518.488 54.8072 519.608 54.0392 521.048C53.2712 522.488 52.8872 524.136 52.8872 525.992V526.52C52.8872 528.44 53.3032 530.136 54.1352 531.608C54.9992 533.048 56.1832 534.184 57.6872 535.016C59.2232 535.816 60.9672 536.216 62.9192 536.216C64.4552 536.216 65.8792 535.944 67.1912 535.4C68.5352 534.856 69.6872 534.024 70.6472 532.904L72.5672 535.112C71.4472 536.456 70.0392 537.48 68.3432 538.184C66.6792 538.888 64.8392 539.24 62.8232 539.24ZM91.7919 539.24C89.1679 539.24 86.8639 538.696 84.8799 537.608C82.8959 536.488 81.3439 534.968 80.2239 533.048C79.1039 531.096 78.5439 528.872 78.5439 526.376C78.5439 523.88 79.0719 521.672 80.1279 519.752C81.2159 517.832 82.6879 516.328 84.5439 515.24C86.4319 514.12 88.5439 513.56 90.8799 513.56C93.2479 513.56 95.3439 514.104 97.1679 515.192C99.0239 516.248 100.48 517.752 101.536 519.704C102.592 521.624 103.12 523.848 103.12 526.376C103.12 526.536 103.104 526.712 103.072 526.904C103.072 527.064 103.072 527.24 103.072 527.432H81.1359V524.888H101.248L99.9039 525.896C99.9039 524.072 99.5039 522.456 98.7039 521.048C97.9359 519.608 96.8799 518.488 95.5359 517.688C94.1919 516.888 92.6399 516.488 90.8799 516.488C89.1519 516.488 87.5999 516.888 86.2239 517.688C84.8479 518.488 83.7759 519.608 83.0079 521.048C82.2399 522.488 81.8559 524.136 81.8559 525.992V526.52C81.8559 528.44 82.2719 530.136 83.1039 531.608C83.9679 533.048 85.1519 534.184 86.6559 535.016C88.1919 535.816 89.9359 536.216 91.8879 536.216C93.4239 536.216 94.8479 535.944 96.1599 535.4C97.5039 534.856 98.6559 534.024 99.6159 532.904L101.536 535.112C100.416 536.456 99.0079 537.48 97.3119 538.184C95.6479 538.888 93.8079 539.24 91.7919 539.24ZM110.057 539V503.384H113.465V539H110.057ZM129.715 539.24C127.635 539.24 125.667 538.952 123.811 538.376C121.955 537.768 120.499 537.016 119.443 536.12L120.979 533.432C122.003 534.2 123.315 534.872 124.915 535.448C126.515 535.992 128.195 536.264 129.955 536.264C132.355 536.264 134.083 535.896 135.139 535.16C136.195 534.392 136.723 533.384 136.723 532.136C136.723 531.208 136.419 530.488 135.811 529.976C135.235 529.432 134.467 529.032 133.507 528.776C132.547 528.488 131.475 528.248 130.291 528.056C129.107 527.864 127.923 527.64 126.739 527.384C125.587 527.128 124.531 526.76 123.571 526.28C122.611 525.768 121.827 525.08 121.219 524.216C120.643 523.352 120.355 522.2 120.355 520.76C120.355 519.384 120.739 518.152 121.507 517.064C122.275 515.976 123.395 515.128 124.867 514.52C126.371 513.88 128.195 513.56 130.339 513.56C131.971 513.56 133.603 513.784 135.235 514.232C136.867 514.648 138.211 515.208 139.267 515.912L137.779 518.648C136.659 517.88 135.459 517.336 134.179 517.016C132.899 516.664 131.619 516.488 130.339 516.488C128.067 516.488 126.387 516.888 125.299 517.688C124.243 518.456 123.715 519.448 123.715 520.664C123.715 521.624 124.003 522.376 124.579 522.92C125.187 523.464 125.971 523.896 126.931 524.216C127.923 524.504 128.995 524.744 130.147 524.936C131.331 525.128 132.499 525.368 133.651 525.656C134.835 525.912 135.907 526.28 136.867 526.76C137.859 527.208 138.643 527.864 139.219 528.728C139.827 529.56 140.131 530.664 140.131 532.04C140.131 533.512 139.715 534.792 138.883 535.88C138.083 536.936 136.899 537.768 135.331 538.376C133.795 538.952 131.923 539.24 129.715 539.24ZM159.667 539V505.4H163.219V535.928H182.035V539H159.667ZM187.213 539V513.8H190.621V539H187.213ZM188.941 508.232C188.237 508.232 187.645 507.992 187.165 507.512C186.685 507.032 186.445 506.456 186.445 505.784C186.445 505.112 186.685 504.552 187.165 504.104C187.645 503.624 188.237 503.384 188.941 503.384C189.645 503.384 190.237 503.608 190.717 504.056C191.197 504.504 191.437 505.064 191.437 505.736C191.437 506.44 191.197 507.032 190.717 507.512C190.269 507.992 189.677 508.232 188.941 508.232ZM202.792 532.472L202.888 528.104L218.584 513.8H222.76L211.672 524.408L209.752 526.04L202.792 532.472ZM200.104 539V503.384H203.512V539H200.104ZM219.64 539L209.128 525.896L211.336 523.256L223.816 539H219.64ZM238.651 539.24C236.027 539.24 233.723 538.696 231.739 537.608C229.755 536.488 228.203 534.968 227.083 533.048C225.963 531.096 225.403 528.872 225.403 526.376C225.403 523.88 225.931 521.672 226.987 519.752C228.075 517.832 229.547 516.328 231.403 515.24C233.291 514.12 235.403 513.56 237.739 513.56C240.107 513.56 242.203 514.104 244.027 515.192C245.883 516.248 247.339 517.752 248.395 519.704C249.451 521.624 249.979 523.848 249.979 526.376C249.979 526.536 249.963 526.712 249.931 526.904C249.931 527.064 249.931 527.24 249.931 527.432H227.995V524.888H248.107L246.763 525.896C246.763 524.072 246.363 522.456 245.563 521.048C244.795 519.608 243.739 518.488 242.395 517.688C241.051 516.888 239.499 516.488 237.739 516.488C236.011 516.488 234.459 516.888 233.083 517.688C231.707 518.488 230.635 519.608 229.867 521.048C229.099 522.488 228.715 524.136 228.715 525.992V526.52C228.715 528.44 229.131 530.136 229.963 531.608C230.827 533.048 232.011 534.184 233.515 535.016C235.051 535.816 236.795 536.216 238.747 536.216C240.283 536.216 241.707 535.944 243.019 535.4C244.363 534.856 245.515 534.024 246.475 532.904L248.395 535.112C247.275 536.456 245.867 537.48 244.171 538.184C242.507 538.888 240.667 539.24 238.651 539.24ZM285.271 539V533.432L285.127 532.52V523.208C285.127 521.064 284.519 519.416 283.303 518.264C282.119 517.112 280.343 516.536 277.975 516.536C276.343 516.536 274.791 516.808 273.319 517.352C271.847 517.896 270.599 518.616 269.575 519.512L268.039 516.968C269.319 515.88 270.855 515.048 272.647 514.472C274.439 513.864 276.327 513.56 278.311 513.56C281.575 513.56 284.087 514.376 285.847 516.008C287.639 517.608 288.535 520.056 288.535 523.352V539H285.271ZM276.583 539.24C274.695 539.24 273.047 538.936 271.639 538.328C270.263 537.688 269.207 536.824 268.471 535.736C267.735 534.616 267.367 533.336 267.367 531.896C267.367 530.584 267.671 529.4 268.279 528.344C268.919 527.256 269.943 526.392 271.351 525.752C272.791 525.08 274.711 524.744 277.111 524.744H285.799V527.288H277.207C274.775 527.288 273.079 527.72 272.119 528.584C271.191 529.448 270.727 530.52 270.727 531.8C270.727 533.24 271.287 534.392 272.407 535.256C273.527 536.12 275.095 536.552 277.111 536.552C279.031 536.552 280.679 536.12 282.055 535.256C283.463 534.36 284.487 533.08 285.127 531.416L285.895 533.768C285.255 535.432 284.135 536.76 282.535 537.752C280.967 538.744 278.983 539.24 276.583 539.24ZM325.666 539.288C323.138 539.288 320.802 538.872 318.658 538.04C316.514 537.176 314.658 535.976 313.09 534.44C311.522 532.904 310.29 531.096 309.394 529.016C308.53 526.936 308.098 524.664 308.098 522.2C308.098 519.736 308.53 517.464 309.394 515.384C310.29 513.304 311.522 511.496 313.09 509.96C314.69 508.424 316.562 507.24 318.706 506.408C320.85 505.544 323.186 505.112 325.714 505.112C328.146 505.112 330.434 505.528 332.578 506.36C334.722 507.16 336.53 508.376 338.002 510.008L335.746 512.264C334.37 510.856 332.85 509.848 331.186 509.24C329.522 508.6 327.73 508.28 325.81 508.28C323.794 508.28 321.922 508.632 320.194 509.336C318.466 510.008 316.962 510.984 315.682 512.264C314.402 513.512 313.394 514.984 312.658 516.68C311.954 518.344 311.602 520.184 311.602 522.2C311.602 524.216 311.954 526.072 312.658 527.768C313.394 529.432 314.402 530.904 315.682 532.184C316.962 533.432 318.466 534.408 320.194 535.112C321.922 535.784 323.794 536.12 325.81 536.12C327.73 536.12 329.522 535.8 331.186 535.16C332.85 534.52 334.37 533.496 335.746 532.088L338.002 534.344C336.53 535.976 334.722 537.208 332.578 538.04C330.434 538.872 328.13 539.288 325.666 539.288ZM354.001 539.24C351.569 539.24 349.377 538.696 347.425 537.608C345.505 536.488 343.985 534.968 342.865 533.048C341.745 531.096 341.185 528.872 341.185 526.376C341.185 523.848 341.745 521.624 342.865 519.704C343.985 517.784 345.505 516.28 347.425 515.192C349.345 514.104 351.537 513.56 354.001 513.56C356.497 513.56 358.705 514.104 360.625 515.192C362.577 516.28 364.097 517.784 365.185 519.704C366.305 521.624 366.865 523.848 366.865 526.376C366.865 528.872 366.305 531.096 365.185 533.048C364.097 534.968 362.577 536.488 360.625 537.608C358.673 538.696 356.465 539.24 354.001 539.24ZM354.001 536.216C355.825 536.216 357.441 535.816 358.849 535.016C360.257 534.184 361.361 533.032 362.161 531.56C362.993 530.056 363.409 528.328 363.409 526.376C363.409 524.392 362.993 522.664 362.161 521.192C361.361 519.72 360.257 518.584 358.849 517.784C357.441 516.952 355.841 516.536 354.049 516.536C352.257 516.536 350.657 516.952 349.249 517.784C347.841 518.584 346.721 519.72 345.889 521.192C345.057 522.664 344.641 524.392 344.641 526.376C344.641 528.328 345.057 530.056 345.889 531.56C346.721 533.032 347.841 534.184 349.249 535.016C350.657 535.816 352.241 536.216 354.001 536.216ZM386.686 513.56C388.734 513.56 390.526 513.96 392.062 514.76C393.63 515.528 394.846 516.712 395.71 518.312C396.606 519.912 397.054 521.928 397.054 524.36V539H393.646V524.696C393.646 522.04 392.974 520.04 391.63 518.696C390.318 517.32 388.462 516.632 386.062 516.632C384.27 516.632 382.702 517 381.358 517.736C380.046 518.44 379.022 519.48 378.286 520.856C377.582 522.2 377.23 523.832 377.23 525.752V539H373.822V513.8H377.086V520.712L376.558 519.416C377.358 517.592 378.638 516.168 380.398 515.144C382.158 514.088 384.254 513.56 386.686 513.56ZM412.271 539L401.087 513.8H404.639L414.911 537.176H413.231L423.647 513.8H427.007L415.775 539H412.271ZM441.808 539.24C439.184 539.24 436.88 538.696 434.896 537.608C432.912 536.488 431.36 534.968 430.24 533.048C429.12 531.096 428.56 528.872 428.56 526.376C428.56 523.88 429.088 521.672 430.144 519.752C431.232 517.832 432.704 516.328 434.56 515.24C436.448 514.12 438.56 513.56 440.896 513.56C443.264 513.56 445.36 514.104 447.184 515.192C449.04 516.248 450.496 517.752 451.552 519.704C452.608 521.624 453.136 523.848 453.136 526.376C453.136 526.536 453.12 526.712 453.088 526.904C453.088 527.064 453.088 527.24 453.088 527.432H431.152V524.888H451.264L449.92 525.896C449.92 524.072 449.52 522.456 448.72 521.048C447.952 519.608 446.896 518.488 445.552 517.688C444.208 516.888 442.656 516.488 440.896 516.488C439.168 516.488 437.616 516.888 436.24 517.688C434.864 518.488 433.792 519.608 433.024 521.048C432.256 522.488 431.872 524.136 431.872 525.992V526.52C431.872 528.44 432.288 530.136 433.12 531.608C433.984 533.048 435.168 534.184 436.672 535.016C438.208 535.816 439.952 536.216 441.904 536.216C443.44 536.216 444.864 535.944 446.176 535.4C447.52 534.856 448.672 534.024 449.632 532.904L451.552 535.112C450.432 536.456 449.024 537.48 447.328 538.184C445.664 538.888 443.824 539.24 441.808 539.24ZM460.072 539V513.8H463.336V520.664L463 519.464C463.704 517.544 464.888 516.088 466.552 515.096C468.216 514.072 470.28 513.56 472.744 513.56V516.872C472.616 516.872 472.488 516.872 472.36 516.872C472.232 516.84 472.104 516.824 471.976 516.824C469.32 516.824 467.24 517.64 465.736 519.272C464.232 520.872 463.48 523.16 463.48 526.136V539H460.072ZM486.012 539.24C483.932 539.24 481.964 538.952 480.108 538.376C478.252 537.768 476.796 537.016 475.74 536.12L477.276 533.432C478.3 534.2 479.612 534.872 481.212 535.448C482.812 535.992 484.492 536.264 486.252 536.264C488.652 536.264 490.38 535.896 491.436 535.16C492.492 534.392 493.02 533.384 493.02 532.136C493.02 531.208 492.716 530.488 492.108 529.976C491.532 529.432 490.764 529.032 489.804 528.776C488.844 528.488 487.772 528.248 486.588 528.056C485.404 527.864 484.22 527.64 483.036 527.384C481.884 527.128 480.828 526.76 479.868 526.28C478.908 525.768 478.124 525.08 477.516 524.216C476.94 523.352 476.652 522.2 476.652 520.76C476.652 519.384 477.036 518.152 477.804 517.064C478.572 515.976 479.692 515.128 481.164 514.52C482.668 513.88 484.492 513.56 486.636 513.56C488.268 513.56 489.9 513.784 491.532 514.232C493.164 514.648 494.508 515.208 495.564 515.912L494.076 518.648C492.956 517.88 491.756 517.336 490.476 517.016C489.196 516.664 487.916 516.488 486.636 516.488C484.364 516.488 482.684 516.888 481.596 517.688C480.54 518.456 480.012 519.448 480.012 520.664C480.012 521.624 480.3 522.376 480.876 522.92C481.484 523.464 482.268 523.896 483.228 524.216C484.22 524.504 485.292 524.744 486.444 524.936C487.628 525.128 488.796 525.368 489.948 525.656C491.132 525.912 492.204 526.28 493.164 526.76C494.156 527.208 494.94 527.864 495.516 528.728C496.124 529.56 496.428 530.664 496.428 532.04C496.428 533.512 496.012 534.792 495.18 535.88C494.38 536.936 493.196 537.768 491.628 538.376C490.092 538.952 488.22 539.24 486.012 539.24ZM518.474 539V533.432L518.33 532.52V523.208C518.33 521.064 517.722 519.416 516.506 518.264C515.322 517.112 513.546 516.536 511.178 516.536C509.546 516.536 507.994 516.808 506.522 517.352C505.05 517.896 503.802 518.616 502.778 519.512L501.242 516.968C502.522 515.88 504.058 515.048 505.85 514.472C507.642 513.864 509.53 513.56 511.514 513.56C514.778 513.56 517.29 514.376 519.05 516.008C520.842 517.608 521.738 520.056 521.738 523.352V539H518.474ZM509.786 539.24C507.898 539.24 506.25 538.936 504.842 538.328C503.466 537.688 502.41 536.824 501.674 535.736C500.938 534.616 500.57 533.336 500.57 531.896C500.57 530.584 500.874 529.4 501.482 528.344C502.122 527.256 503.146 526.392 504.554 525.752C505.994 525.08 507.914 524.744 510.314 524.744H519.002V527.288H510.41C507.978 527.288 506.282 527.72 505.322 528.584C504.394 529.448 503.93 530.52 503.93 531.8C503.93 533.24 504.49 534.392 505.61 535.256C506.73 536.12 508.298 536.552 510.314 536.552C512.234 536.552 513.882 536.12 515.258 535.256C516.666 534.36 517.69 533.08 518.33 531.416L519.098 533.768C518.458 535.432 517.338 536.76 515.738 537.752C514.17 538.744 512.186 539.24 509.786 539.24ZM538.962 539.24C536.594 539.24 534.77 538.6 533.49 537.32C532.21 536.04 531.57 534.232 531.57 531.896V508.232H534.978V531.704C534.978 533.176 535.346 534.312 536.082 535.112C536.85 535.912 537.938 536.312 539.346 536.312C540.85 536.312 542.098 535.88 543.09 535.016L544.29 537.464C543.618 538.072 542.802 538.52 541.842 538.808C540.914 539.096 539.954 539.24 538.962 539.24ZM527.058 516.632V513.8H542.658V516.632H527.058ZM550.494 539V513.8H553.902V539H550.494ZM552.222 508.232C551.518 508.232 550.926 507.992 550.446 507.512C549.966 507.032 549.726 506.456 549.726 505.784C549.726 505.112 549.966 504.552 550.446 504.104C550.926 503.624 551.518 503.384 552.222 503.384C552.926 503.384 553.518 503.608 553.998 504.056C554.478 504.504 554.718 505.064 554.718 505.736C554.718 506.44 554.478 507.032 553.998 507.512C553.55 507.992 552.958 508.232 552.222 508.232ZM573.657 539.24C571.225 539.24 569.033 538.696 567.081 537.608C565.161 536.488 563.641 534.968 562.521 533.048C561.401 531.096 560.841 528.872 560.841 526.376C560.841 523.848 561.401 521.624 562.521 519.704C563.641 517.784 565.161 516.28 567.081 515.192C569.001 514.104 571.193 513.56 573.657 513.56C576.153 513.56 578.361 514.104 580.281 515.192C582.233 516.28 583.753 517.784 584.841 519.704C585.961 521.624 586.521 523.848 586.521 526.376C586.521 528.872 585.961 531.096 584.841 533.048C583.753 534.968 582.233 536.488 580.281 537.608C578.329 538.696 576.121 539.24 573.657 539.24ZM573.657 536.216C575.481 536.216 577.097 535.816 578.505 535.016C579.913 534.184 581.017 533.032 581.817 531.56C582.649 530.056 583.065 528.328 583.065 526.376C583.065 524.392 582.649 522.664 581.817 521.192C581.017 519.72 579.913 518.584 578.505 517.784C577.097 516.952 575.497 516.536 573.705 516.536C571.913 516.536 570.313 516.952 568.905 517.784C567.497 518.584 566.377 519.72 565.545 521.192C564.713 522.664 564.297 524.392 564.297 526.376C564.297 528.328 564.713 530.056 565.545 531.56C566.377 533.032 567.497 534.184 568.905 535.016C570.313 535.816 571.897 536.216 573.657 536.216ZM606.343 513.56C608.391 513.56 610.183 513.96 611.719 514.76C613.287 515.528 614.503 516.712 615.367 518.312C616.263 519.912 616.711 521.928 616.711 524.36V539H613.303V524.696C613.303 522.04 612.631 520.04 611.287 518.696C609.975 517.32 608.119 516.632 605.719 516.632C603.927 516.632 602.359 517 601.015 517.736C599.703 518.44 598.679 519.48 597.943 520.856C597.239 522.2 596.887 523.832 596.887 525.752V539H593.479V513.8H596.743V520.712L596.215 519.416C597.015 517.592 598.295 516.168 600.055 515.144C601.815 514.088 603.911 513.56 606.343 513.56Z" fill="#292D32"/>
<path d="M163.425 321.603V263.247H140.411V249.685H203.082V263.247H180.069V321.603H163.425ZM242.002 321.603V310.816L240.975 308.453V289.137C240.975 285.713 239.913 283.042 237.79 281.124C235.735 279.206 232.55 278.247 228.235 278.247C225.29 278.247 222.379 278.726 219.502 279.685C216.694 280.576 214.297 281.809 212.31 283.384L206.557 272.185C209.571 270.062 213.201 268.418 217.447 267.254C221.694 266.089 226.009 265.507 230.393 265.507C238.817 265.507 245.358 267.494 250.016 271.466C254.674 275.439 257.002 281.637 257.002 290.062V321.603H242.002ZM225.153 322.425C220.838 322.425 217.139 321.706 214.057 320.268C210.975 318.761 208.612 316.74 206.968 314.206C205.324 311.672 204.502 308.829 204.502 305.679C204.502 302.391 205.29 299.514 206.865 297.048C208.509 294.583 211.078 292.665 214.571 291.295C218.064 289.857 222.619 289.137 228.235 289.137H242.927V298.487H229.982C226.215 298.487 223.612 299.103 222.174 300.336C220.804 301.569 220.119 303.11 220.119 304.959C220.119 307.014 220.906 308.658 222.482 309.891C224.126 311.055 226.352 311.637 229.16 311.637C231.831 311.637 234.228 311.021 236.352 309.788C238.475 308.487 240.016 306.603 240.975 304.137L243.441 311.535C242.276 315.096 240.153 317.802 237.071 319.651C233.989 321.501 230.016 322.425 225.153 322.425ZM304.179 322.425C299.522 322.425 295.446 321.398 291.953 319.343C288.46 317.288 285.72 314.172 283.734 309.994C281.816 305.747 280.857 300.405 280.857 293.966C280.857 287.459 281.782 282.117 283.631 277.939C285.481 273.761 288.152 270.644 291.645 268.589C295.138 266.535 299.316 265.507 304.179 265.507C309.385 265.507 314.042 266.706 318.152 269.103C322.33 271.432 325.618 274.72 328.015 278.966C330.481 283.213 331.714 288.213 331.714 293.966C331.714 299.788 330.481 304.822 328.015 309.069C325.618 313.316 322.33 316.603 318.152 318.932C314.042 321.261 309.385 322.425 304.179 322.425ZM271.508 341.535V266.329H286.816V277.631L286.508 294.069L287.535 310.405V341.535H271.508ZM301.405 309.274C304.077 309.274 306.44 308.658 308.494 307.425C310.618 306.192 312.296 304.446 313.529 302.185C314.83 299.857 315.481 297.117 315.481 293.966C315.481 290.747 314.83 288.007 313.529 285.747C312.296 283.487 310.618 281.74 308.494 280.507C306.44 279.274 304.077 278.658 301.405 278.658C298.734 278.658 296.337 279.274 294.213 280.507C292.09 281.74 290.412 283.487 289.179 285.747C287.946 288.007 287.33 290.747 287.33 293.966C287.33 297.117 287.946 299.857 289.179 302.185C290.412 304.446 292.09 306.192 294.213 307.425C296.337 308.658 298.734 309.274 301.405 309.274ZM343.573 321.603V249.685H357.34L387.956 300.439H380.662L410.765 249.685H424.429L424.635 321.603H409.018L408.915 273.624H411.792L387.751 314H380.251L355.696 273.624H359.189V321.603H343.573ZM467.999 322.425C461.698 322.425 456.15 321.192 451.355 318.727C446.629 316.261 442.965 312.905 440.362 308.658C437.759 304.343 436.458 299.446 436.458 293.966C436.458 288.418 437.725 283.521 440.259 279.274C442.862 274.959 446.389 271.603 450.841 269.206C455.293 266.74 460.328 265.507 465.944 265.507C471.355 265.507 476.218 266.672 480.533 269C484.917 271.261 488.376 274.548 490.91 278.863C493.444 283.11 494.711 288.213 494.711 294.172C494.711 294.788 494.677 295.507 494.609 296.329C494.54 297.083 494.472 297.802 494.403 298.487H449.506V289.137H485.978L479.814 291.911C479.814 289.035 479.232 286.535 478.067 284.411C476.903 282.288 475.293 280.644 473.239 279.48C471.184 278.247 468.787 277.631 466.047 277.631C463.307 277.631 460.876 278.247 458.752 279.48C456.698 280.644 455.088 282.322 453.924 284.514C452.759 286.637 452.177 289.172 452.177 292.117V294.583C452.177 297.596 452.828 300.268 454.129 302.596C455.499 304.857 457.382 306.603 459.78 307.836C462.245 309 465.122 309.583 468.41 309.583C471.355 309.583 473.924 309.137 476.115 308.247C478.376 307.357 480.43 306.021 482.28 304.24L490.807 313.487C488.273 316.364 485.088 318.59 481.252 320.165C477.417 321.672 472.999 322.425 467.999 322.425Z" fill="#1E09A1"/>
<path d="M205.891 115.001C198.132 112.078 197.891 101.192 205.512 97.9271L433.222 0.390542C437.333 -1.37015 441.286 3.17386 438.973 7.00111L323.83 197.548C320.349 203.309 312.063 203.507 308.311 197.918L271.855 143.618C269.653 140.338 266.483 137.827 262.786 136.434L205.891 115.001Z" fill="url(#paint0_linear_31_240)"/>
<defs>
<linearGradient id="paint0_linear_31_240" x1="417.342" y1="56.6615" x2="264.958" y2="214.925" gradientUnits="userSpaceOnUse">
<stop stop-color="#9E09A1"/>
<stop offset="1" stop-color="#5E09A1"/>
</linearGradient>
</defs>
</svg>
