<svg width="34" height="35" viewBox="0 0 34 35" fill="none" xmlns="http://www.w3.org/2000/svg">
<path d="M7.08333 27.4167H9.10208L22.95 13.5687L20.9312 11.55L7.08333 25.3979V27.4167ZM4.25 30.25V24.2292L22.95 5.56458C23.2333 5.30486 23.5462 5.10417 23.8885 4.9625C24.2309 4.82083 24.591 4.75 24.9687 4.75C25.3465 4.75 25.7125 4.82083 26.0667 4.9625C26.4208 5.10417 26.7278 5.31667 26.9875 5.6L28.9354 7.58333C29.2187 7.84306 29.4253 8.15 29.5552 8.50417C29.6851 8.85833 29.75 9.2125 29.75 9.56667C29.75 9.94444 29.6851 10.3045 29.5552 10.6469C29.4253 10.9892 29.2187 11.3021 28.9354 11.5854L10.2708 30.25H4.25ZM21.9229 12.5771L20.9312 11.55L22.95 13.5687L21.9229 12.5771Z" fill="white"/>
</svg>
